<svg xmlns="http://www.w3.org/2000/svg" xmlns:xlink="http://www.w3.org/1999/xlink" version="1.1" x="0px" y="0px" viewBox="0 0 96 120" enable-background="new 0 0 96 96" xml:space="preserve"><path d="M4.844,8.307h4.992v46.499H4.844v7.557H45v27.481H30.76v5.5H45h6h14.24v-5.5H51V62.362h40.342v-7.557h-4.991V8.307h4.991  V0.75H4.844V8.307z M63.741,93.844H51h-1.5h-3H45H32.26v-2.5H45h1.5h3H51h12.74V93.844z M49.5,89.844h-3V62.362h3V89.844z   M89.842,56.306v4.557H51h-6H6.344v-4.557h3.492h76.516H89.842z M84.851,54.806H11.335V8.307h73.516V54.806z M6.344,2.25h83.499  v4.557h-3.491H9.835H6.344V2.25z"/><path d="M66.993,49.43v-1.5V20.176H53.586l5.285-5.285v3.148h1.5V12.33h-5.709v1.5h3.148L36.292,35.351l1.061,1.061l16.039-16.04  V32.74H41.293v6.279h-12.1v8.91v1.5v1.352h37.799V49.43z M54.891,21.676h10.602V47.93H54.891V32.74V21.676z M42.793,34.24h10.598  V47.93H42.793v-8.91V34.24z M30.693,40.52h10.6v7.41h-10.6V40.52z"/><text x="0" y="111" fill="#000000" font-size="5px" font-weight="bold" font-family="'Helvetica Neue', Helvetica, Arial-Unicode, Arial, Sans-serif">Created by faisalovers</text><text x="0" y="116" fill="#000000" font-size="5px" font-weight="bold" font-family="'Helvetica Neue', Helvetica, Arial-Unicode, Arial, Sans-serif">from the Noun Project</text></svg>